<?xml version="1.0" encoding="UTF-8"?><svg id="Layer_2" xmlns="http://www.w3.org/2000/svg" viewBox="0 0 50.14 28.03"><g id="Elements"><path d="M19.4,9.51c6.07,.36,12.15,.62,18.21,1.13,3.35,.28,6.68,.89,9.97,1.54,1.42,.28,3.05,1.14,2.41,2.89-.3,.83-1.9,1.53-2.98,1.66-1.73,.2-3.51-.13-5.27-.23-9.42-.56-18.83-1.12-28.25-1.68-.12,.28-.24,.56-.36,.84,1.75,1.11,3.61,2.09,5.24,3.36,2.26,1.77,4.45,3.65,6.42,5.72,.5,.53,.3,2.1-.1,2.96-.17,.37-1.86,.47-2.52,.09-6.53-3.75-13.09-7.45-19.43-11.51-3.84-2.47-3.64-5.82,.62-7.59C10.74,5.6,18.36,3.07,25.9,.39c1.35-.48,3.05-.81,3.79,.9,.73,1.67-.51,2.66-1.88,3.37-1.56,.81-3.12,1.63-4.71,2.39-1.26,.6-2.56,1.12-3.85,1.68,.05,.26,.1,.53,.15,.79Z"/></g></svg>