<?xml version="1.0" encoding="UTF-8"?><svg id="Layer_2" xmlns="http://www.w3.org/2000/svg" viewBox="0 0 51.94 67.94"><g id="Elements"><path d="M0,65.92c13.47-.81,20.99-9.48,27.03-20.12,6.21-10.94,7.75-22.58,5.04-35.4-3.72,6.2-5.44,13.31-12.17,18.25,.29-1.79,.18-2.75,.59-3.36,4.28-6.31,7.07-13.27,9.23-20.53,.27-.92,.58-1.85,1.05-2.68,1.28-2.25,3.05-2.67,5.22-1.31,.54,.34,1.02,.77,1.47,1.23,4.26,4.28,8.57,8.51,14.47,10.75-5.49,2.39-9.73-.14-13.79-3.57,0,5.66,.44,10.92-.08,16.09-1.53,15.18-7.81,28.04-20.27,37.23-3.24,2.39-7.38,3.74-11.28,5.02-2.8,.92-3.65,.33-6.52-1.6Z"/></g></svg>