<?xml version="1.0" encoding="UTF-8"?><svg id="Layer_2" xmlns="http://www.w3.org/2000/svg" viewBox="0 0 79.25 99.72"><g id="Elements"><path d="M70.89,87.52c2.34-3.18,4.69-6.36,7.27-9.86,1.52,2.19,1.29,4.32,.31,5.98-2.93,4.93-5.94,9.85-9.4,14.42-1.98,2.62-4.72,2.03-6.03-.96-2.19-4.98-4.12-10.08-6.15-15.13-.12-.3-.32-.66-.24-.91,.25-.82,.61-1.61,.93-2.41,.68,.29,1.64,.38,1.98,.9,1.15,1.73,2.07,3.6,3.08,5.42,.53,.95,1.04,1.91,2.39,2.83,.2-1.65,.46-3.29,.58-4.94C67.92,49.29,48.36,19,16.71,7.25c-4.05-1.5-8.28-2.5-12.42-3.76-1.44-.44-2.86-.95-4.29-1.43V.97C.91,.63,1.85-.07,2.72,0c3.02,.26,6.08,.57,9.03,1.26,29.88,6.95,53.03,32.53,57.57,63.94,.87,5.99,.63,12.14,.86,18.21,.05,1.25-.09,2.51-.14,3.76,.28,.12,.56,.23,.84,.35Z"/></g></svg>