<?xml version="1.0" encoding="UTF-8"?><svg id="Layer_2" xmlns="http://www.w3.org/2000/svg" viewBox="0 0 75.32 71.37"><g id="Elements"><path d="M68.19,0c4.18,5.65,5.93,12.28,6.8,19.11,1.05,8.26-.42,16.23-3.39,24.03-2.94,7.7-8.17,12.85-15.81,15.75-11.93,4.52-24.03,5.16-36.35,1.84-2.01-.54-4.03-1.01-6.05-1.49-.13-.03-.3,.11-.83,.32,2.61,3.7,5.18,7.34,7.75,10.99-.22,.27-.44,.55-.66,.82-.8-.11-1.93,.08-2.36-.38-5.56-5.99-11.09-12.01-16.46-18.17-1.45-1.66-.9-3.16,1.18-4.23,1.13-.58,2.46-.76,3.6-1.32,2.13-1.06,4.17-2.31,6.27-3.43,1.92-1.02,3.87-1.98,6.05-3.1,.07,3.34-.55,4.14-7.35,10.09,1.07,.51,1.95,1.03,2.89,1.35,10.74,3.73,21.63,5.81,33.04,3.43,14.92-3.11,20.23-7.48,24.55-24.46,2.43-9.53,.56-18.76-2.62-27.82-.35-1-.78-1.98-1.18-2.97l.95-.37Z"/></g></svg>