<?xml version="1.0" encoding="UTF-8"?><svg id="Layer_2" xmlns="http://www.w3.org/2000/svg" viewBox="0 0 37.86 24.12"><g id="Elements"><path d="M15.86,20.49q2.59-2.81,11.73-3.08c-3.09-1.8-5.25-3.13-7.47-4.36-2.38-1.32-4.78-2.61-7.23-3.8-3.31-1.61-6.71-3.05-10.02-4.66C1.55,3.96-.75,3.67,.24,1.44,1.12-.54,3.1,.31,4.47,.92c4.97,2.21,9.89,4.52,14.75,6.96,2.7,1.36,5.23,3.06,8.3,4.87-1.34-4.71-5.67-7.45-6.18-12.75,1.44,.71,2.55,.96,3.23,1.64,4.98,5.03,9.32,10.56,12.5,16.93,.28,.57,.57,1.17,.69,1.79,.48,2.3-.73,4.01-3.03,3.74-6.02-.72-12.02-1.7-18.02-2.61-.23-.04-.4-.45-.86-.99Z"/></g></svg>