<?xml version="1.0" encoding="UTF-8"?><svg id="Layer_2" xmlns="http://www.w3.org/2000/svg" viewBox="0 0 32.97 51.7"><g id="Elements"><path d="M10.29,26.92c1.68-5.84-1.17-10.43-2.4-16.12,6.68,3.19,12.75,5.81,16.98,11.35,3.24,4.23,4.52,8.86,2.56,13.98-1.31,3.43-2.85,6.78-4.42,10.1-.73,1.53-2.01,2.86-1.07,5.46,1.23-.82,2.41-1.27,3.07-2.11,3.83-4.85,6.51-10.29,7.68-16.38,.82-4.29-.27-8.26-2.47-11.98-2.68-4.54-6.47-7.93-10.99-10.54-2.62-1.51-5.3-2.92-8.41-4.62,3.14-2,7.74-.71,9.36-5.11-.84-.38-1.57-1.03-2.2-.94C12.75,.74,7.52,1.55,2.32,2.45,.37,2.79-.45,4.29,.25,6.05c2.62,6.54,5.39,13.01,8.15,19.49,.15,.36,.72,.54,1.89,1.38Z"/></g></svg>